<svg xmlns="http://www.w3.org/2000/svg" viewBox="0 0 1024 1024">
  <defs>
    <linearGradient id="bg1" x1="0" y1="0" x2="0" y2="1">
      <stop offset="0" stop-color="#22C55E"/>
      <stop offset="1" stop-color="#15803D"/>
    </linearGradient>
  </defs>
  <rect width="1024" height="1024" fill="url(#bg1)"/>
  <g transform="translate(512 512)">
    <path d="M 0 -340 C 180 -300 280 -160 280 0 C 280 180 160 320 0 340 C -160 320 -280 180 -280 0 C -280 -160 -180 -300 0 -340 Z" fill="#fff"/>
    <line x1="0" y1="-310" x2="0" y2="320" stroke="#15803D" stroke-width="20" stroke-linecap="round"/>
    <path d="M 0 -180 L 130 -240" stroke="#15803D" stroke-width="20" stroke-linecap="round" fill="none"/>
    <path d="M 0 -180 L -130 -240" stroke="#15803D" stroke-width="20" stroke-linecap="round" fill="none"/>
    <path d="M 0 -50 L 180 -120" stroke="#15803D" stroke-width="20" stroke-linecap="round" fill="none"/>
    <path d="M 0 -50 L -180 -120" stroke="#15803D" stroke-width="20" stroke-linecap="round" fill="none"/>
    <path d="M 0 100 L 200 30" stroke="#15803D" stroke-width="20" stroke-linecap="round" fill="none"/>
    <path d="M 0 100 L -200 30" stroke="#15803D" stroke-width="20" stroke-linecap="round" fill="none"/>
  </g>
</svg>
